<svg width="45" height="33" viewBox="0 0 45 33" fill="none" xmlns="http://www.w3.org/2000/svg">
<path d="M19.897 4.03955C20.7471 3.95259 21.6154 3.9079 22.5 3.9079C32.0611 3.9079 39.7197 9.12938 43 16.5C42.1911 18.3176 41.1159 20.0045 39.8116 21.5146M11.2652 6.64117C7.08308 8.88008 3.84728 12.3493 2 16.5C5.28028 23.8706 12.9389 29.0921 22.5 29.0921C26.677 29.0921 30.4909 28.0955 33.7352 26.3586M18.1515 12.6838C17.0384 13.6605 16.35 15.0097 16.35 16.5C16.35 19.4805 19.1034 21.8966 22.5 21.8966C24.1984 21.8966 25.7359 21.2925 26.8489 20.3158" stroke="#CCCCCC" stroke-width="4" stroke-linecap="round" stroke-linejoin="round"/>
<path d="M6.3158 2L39.1158 31" stroke="#CCCCCC" stroke-width="4" stroke-linecap="round"/>
</svg>
