<svg width="37" height="37" viewBox="0 0 37 37" fill="none" xmlns="http://www.w3.org/2000/svg">
<path d="M32.6332 2.33901C27.756 -1.32398 21.7334 0.385402 18.4819 4.57757C15.2304 0.385402 9.20777 -1.34431 4.33059 2.33901C1.74417 4.29262 0.118465 7.58936 0.00760887 11.0692C-0.251004 18.9651 6.10413 25.2941 15.8031 35.0011L15.9879 35.1841C17.3919 36.5883 19.5534 36.5884 20.9575 35.1639L21.1606 34.9603C30.8597 25.2736 37.1963 18.9448 36.9562 11.0489C36.8453 7.58936 35.2196 4.29262 32.6332 2.33901ZM18.6666 31.9688L18.4819 32.1723L18.2972 31.9688C9.50336 23.1979 3.70244 17.3981 3.70244 11.5169C3.70244 7.44693 6.47359 4.3944 10.1685 4.3944C13.0135 4.3944 15.7846 6.40915 16.7638 9.19704H20.2185C21.1792 6.40915 23.9503 4.3944 26.7953 4.3944C30.4902 4.3944 33.2613 7.44693 33.2613 11.5169C33.2613 17.3981 27.4604 23.1979 18.6666 31.9688Z" fill="#335C7A"/>
<path d="M20.0129 3.62308L18.4962 5.36152L16.9721 3.61885C15.1075 1.48714 12.5787 0.289666 9.94202 0.289865C7.3053 0.290063 4.77664 1.48792 2.91232 3.61991C1.04799 5.7519 0.000726856 8.64339 0.00090029 11.6583C0.00107372 14.6732 1.04867 17.5645 2.91324 19.6962L17.5159 36.3933C17.776 36.6903 18.1286 36.8571 18.4962 36.8571C18.8638 36.8571 19.2164 36.6903 19.4765 36.3933L34.0921 19.692C35.9544 17.5598 37.0003 14.6695 37 11.656C36.9997 8.6426 35.9531 5.75258 34.0902 3.62097C33.1661 2.56361 32.0688 1.72483 30.8611 1.15255C29.6534 0.580275 28.3589 0.285721 27.0515 0.285721C25.7442 0.285721 24.4497 0.580275 23.242 1.15255C22.0342 1.72483 20.937 2.56361 20.0129 3.62097V3.62308ZM32.1241 17.4544L18.4962 33.0306L4.87382 17.4544C4.20247 16.6949 3.66902 15.7912 3.30413 14.7952C2.93923 13.7992 2.7501 12.7305 2.74758 11.6506C2.74507 10.5708 2.92923 9.50096 3.28949 8.50273C3.64974 7.50451 4.17898 6.59754 4.84679 5.83395C5.5146 5.07036 6.3078 4.46522 7.18081 4.05329C8.05383 3.64137 8.98943 3.43079 9.93385 3.43366C10.8783 3.43654 11.8129 3.6528 12.684 4.07003C13.555 4.48726 14.3454 5.09722 15.0097 5.86486L17.5214 8.73477C17.6521 8.88436 17.8076 9.00258 17.9789 9.08245C18.1501 9.16233 18.3335 9.20226 18.5184 9.1999C18.7033 9.19753 18.886 9.15292 19.0556 9.06868C19.2252 8.98445 19.3783 8.86229 19.5061 8.70939L21.9734 5.86486C23.3335 4.41738 25.1315 3.62945 26.9892 3.66682C28.8469 3.7042 30.6196 4.56397 31.9343 6.06527C33.2489 7.56656 34.0031 9.59235 34.0382 11.7165C34.0732 13.8406 33.3864 15.8975 32.1222 17.4544H32.1241Z" fill="#536471"/>
</svg>
