<svg width="33" height="34" viewBox="0 0 33 34" fill="none" xmlns="http://www.w3.org/2000/svg">
<path fill-rule="evenodd" clip-rule="evenodd" d="M20.0382 23.7281C14.6625 27.6657 7.25494 26.7026 2.99729 21.5123C-1.26037 16.3221 -0.947738 8.63629 3.71648 3.83128C8.37947 -0.975828 15.8399 -1.29932 20.8785 3.08712C25.917 7.47356 26.8524 15.1063 23.0302 20.6454L33 30.9195L30.0101 34L20.0382 23.7281ZM4.40258 11.3025C5.21711 7.25745 8.67644 4.35754 12.6861 4.35846C14.9304 4.35223 17.0838 5.2717 18.6659 6.91177L18.6913 6.93791L18.7824 7.0317L18.8541 7.1122C21.5967 10.1258 21.9086 14.7094 19.601 18.0879C17.2934 21.4664 13.0004 22.7111 9.3213 21.0686C5.64217 19.426 3.58804 15.3476 4.40258 11.3025Z" fill="black"/>
</svg>
