<svg width="30" height="31" viewBox="0 0 30 31" fill="none" xmlns="http://www.w3.org/2000/svg">
<path d="M27.2709 0.0193157C27.2398 0.0167246 27.2135 0 27.181 0H13.7468C11.6798 0 9.99768 1.73158 9.99768 3.85938V5.14575C9.99768 5.85596 10.5574 6.43237 11.2473 6.43237C11.9372 6.43237 12.4969 5.85596 12.4969 5.14575V3.85938C12.4969 3.15058 13.058 2.573 13.7468 2.573H19.5691L19.1878 2.7042C18.1757 3.06437 17.4959 4.04594 17.4959 5.14575V24.4426H13.7468C13.058 24.4426 12.4969 23.865 12.4969 23.1562V20.5833C12.4969 19.8733 11.9372 19.2969 11.2473 19.2969C10.5574 19.2969 9.99768 19.8733 9.99768 20.5833V23.1562C9.99768 25.284 11.6798 27.0156 13.7468 27.0156H17.4959V28.302C17.4959 29.721 18.6167 30.875 19.9951 30.875C20.2626 30.875 20.5164 30.8352 20.7912 30.7476L28.2995 28.1708C29.313 27.8106 29.9928 26.8291 29.9928 25.7292V2.573C29.9928 1.07296 28.7368 -0.102939 27.2709 0.0193157Z" fill="black"/>
<path d="M13.3805 11.955L8.38172 6.80928C8.02429 6.44134 7.487 6.33063 7.01951 6.53014C6.55339 6.72943 6.24859 7.19913 6.24859 7.71877V11.5781H1.24963C0.559941 11.5781 0 12.1546 0 12.8645C0 13.5747 0.559941 14.1511 1.24963 14.1511H6.24859V18.0105C6.24859 18.5302 6.55339 18.9996 7.01951 19.1991C7.487 19.3984 8.02429 19.2879 8.38172 18.92L13.3805 13.774C13.8692 13.2711 13.8692 12.4582 13.3805 11.955Z" fill="black"/>
</svg>
