<svg width="42" height="42" viewBox="0 0 42 42" fill="none" xmlns="http://www.w3.org/2000/svg">
<path fill-rule="evenodd" clip-rule="evenodd" d="M20.4215 20.2987C24.2861 20.3007 27.4211 17.1704 27.425 13.3057C27.4211 9.44112 24.2861 6.29683 20.4215 6.29876C16.5569 6.30069 13.425 9.43412 13.425 13.2987C13.425 17.1634 16.5569 20.2968 20.4215 20.2987Z" fill="black"/>
<path fill-rule="evenodd" clip-rule="evenodd" d="M37.8475 17.5C37.8475 7.83501 30.0125 7.62939e-06 20.3475 7.62939e-06C10.6825 7.62939e-06 2.84747 7.83501 2.84747 17.5C2.84747 24.1128 6.51531 29.869 11.9276 32.845C14.4256 34.2186 17.2953 35 20.3475 35C23.401 34.9966 26.2715 34.2122 28.77 32.8357C34.176 29.8573 37.8402 24.107 37.8475 17.5ZM20.3405 3.48601C12.6112 3.48988 6.34748 9.75674 6.34748 17.486C6.34748 21.9997 8.48358 26.0146 11.8002 28.5749C12.6605 24.648 16.1581 21.7082 20.3431 21.7061C24.5261 21.704 28.0252 24.6506 28.8916 28.5773C32.2063 26.0201 34.343 22.0101 34.3475 17.5C34.3397 9.77074 28.0697 3.48215 20.3405 3.48601ZM27.425 13.3057C27.4211 17.1704 24.2861 20.3007 20.4215 20.2987C16.5569 20.2968 13.425 17.1634 13.425 13.2987C13.425 9.43412 16.5569 6.30069 20.4215 6.29876C24.2861 6.29683 27.4211 9.44112 27.425 13.3057Z" fill="black"/>
</svg>
